<svg width="602" height="635" viewBox="0 0 602 635" fill="none" xmlns="http://www.w3.org/2000/svg">
<path d="M157.582 288.533H602V670.935C602 693.337 593.102 714.823 577.263 730.666C561.424 746.509 539.941 755.413 517.538 755.419H242.066C219.66 755.419 198.171 746.518 182.327 730.674C166.483 714.83 157.582 693.341 157.582 670.935V288.533Z" fill="#F15A24"/>
<path d="M305.607 584.632C451.982 584.632 570.642 465.972 570.642 319.598C570.642 173.223 451.982 54.5629 305.607 54.5629C159.232 54.5629 40.5723 173.223 40.5723 319.598C40.5723 465.972 159.232 584.632 305.607 584.632Z" fill="#FFB800"/>
<path d="M601.976 292.079C601.979 253.78 594.438 215.855 579.784 180.47C565.129 145.085 543.648 112.933 516.567 85.8497C489.486 58.7667 457.336 37.2832 421.952 22.6259C386.568 7.9686 348.644 0.42456 310.344 0.424561H291.827C215.479 0.427136 142.177 30.3666 87.6594 83.8144C33.1414 137.262 1.75491 209.957 0.239014 286.289V286.289V292.079V618.233C0.239014 636.092 7.33333 653.219 19.9613 665.847C32.5892 678.475 49.7164 685.569 67.5751 685.569H274.319C292.178 685.569 309.305 678.475 321.933 665.847C334.561 653.219 341.655 636.092 341.655 618.233V292.079H601.976Z" fill="#FF8A00"/>
</svg>
